M48
; DRILL file {KiCad (5.1.8)-1} date 07/10/21 07:55:52
; FORMAT={-:-/ absolute / metric / decimal}
; #@! TF.CreationDate,2021-07-10T07:55:52+08:00
; #@! TF.GenerationSoftware,Kicad,Pcbnew,(5.1.8)-1
; #@! TF.FileFunction,Plated,1,2,PTH
FMAT,2
METRIC
T1C0.500
T2C0.700
%
G90
G05
T1
X94.882Y-105.65
X95.701Y-106.224
X96.52Y-106.797
X97.34Y-107.371
X99.0Y-93.0
X100.0Y-93.0
X101.0Y-93.0
X102.66Y-107.371
X103.48Y-106.797
X104.299Y-106.224
X105.118Y-105.65
T2
X94.54Y-99.337
X94.857Y-101.95
X95.474Y-96.876
X96.353Y-104.117
X97.444Y-95.13
X98.684Y-105.34
X100.0Y-94.5
X101.316Y-105.34
X102.556Y-95.13
X103.647Y-104.117
X104.526Y-96.876
X105.143Y-101.95
X105.46Y-99.337
T0
M30
