%FSLAX45Y45*%
G04 Gerber Fmt 4.5, Leading zero omitted, Abs format (unit mm)*
G04 Created by KiCad (PCBNEW (5.1.8)-1) date 2021-07-10 07:55:57*
%MOMM*%
%LPD*%
G01*
G04 APERTURE LIST*
%TA.AperFunction,Profile*%
%ADD10C,0.050000*%
%TD*%
%ADD11C,0.200000*%
%ADD12C,0.300000*%
G04 APERTURE END LIST*
D10*
X10680000Y-10530000D02*
G75*
G02*
X10390000Y-10820000I-290000J0D01*
G01*
X9610000Y-10820000D02*
G75*
G02*
X9320000Y-10530000I0J290000D01*
G01*
X10390000Y-9210000D02*
G75*
G02*
X10680000Y-9500000I0J-290000D01*
G01*
X9320000Y-9500000D02*
G75*
G02*
X9610000Y-9210000I290000J0D01*
G01*
X10400000Y-10000000D02*
G75*
G03*
X10400000Y-10000000I-400000J0D01*
G01*
X10390000Y-10820000D02*
X9610000Y-10820000D01*
X10680000Y-9500000D02*
X10680000Y-10530000D01*
X9610000Y-9210000D02*
X10390000Y-9210000D01*
X9320000Y-10530000D02*
X9320000Y-9500000D01*
D11*
X9463219Y-10540004D02*
X9513219Y-10590004D01*
X9513219Y-10540004D02*
X9463219Y-10590004D01*
X9545134Y-10597362D02*
X9595134Y-10647362D01*
X9595134Y-10597362D02*
X9545134Y-10647362D01*
X9627049Y-10654720D02*
X9677049Y-10704720D01*
X9677049Y-10654720D02*
X9627049Y-10704720D01*
X9708964Y-10712077D02*
X9758964Y-10762077D01*
X9758964Y-10712077D02*
X9708964Y-10762077D01*
X9875000Y-9275000D02*
X9925000Y-9325000D01*
X9925000Y-9275000D02*
X9875000Y-9325000D01*
X9975000Y-9275000D02*
X10025000Y-9325000D01*
X10025000Y-9275000D02*
X9975000Y-9325000D01*
X10075000Y-9275000D02*
X10125000Y-9325000D01*
X10125000Y-9275000D02*
X10075000Y-9325000D01*
X10241036Y-10712077D02*
X10291036Y-10762077D01*
X10291036Y-10712077D02*
X10241036Y-10762077D01*
X10322951Y-10654720D02*
X10372951Y-10704720D01*
X10372951Y-10654720D02*
X10322951Y-10704720D01*
X10404866Y-10597362D02*
X10454866Y-10647362D01*
X10454866Y-10597362D02*
X10404866Y-10647362D01*
X10486781Y-10540004D02*
X10536781Y-10590004D01*
X10536781Y-10540004D02*
X10486781Y-10590004D01*
X9489010Y-9933705D02*
G75*
G03*
X9489010Y-9933705I-35000J0D01*
G01*
X9520741Y-10195033D02*
G75*
G03*
X9520741Y-10195033I-35000J0D01*
G01*
X9582359Y-9687564D02*
G75*
G03*
X9582359Y-9687564I-35000J0D01*
G01*
X9670283Y-10411681D02*
G75*
G03*
X9670283Y-10411681I-35000J0D01*
G01*
X9779402Y-9512999D02*
G75*
G03*
X9779402Y-9512999I-35000J0D01*
G01*
X9903376Y-10534018D02*
G75*
G03*
X9903376Y-10534018I-35000J0D01*
G01*
X10035000Y-9450000D02*
G75*
G03*
X10035000Y-9450000I-35000J0D01*
G01*
X10166624Y-10534018D02*
G75*
G03*
X10166624Y-10534018I-35000J0D01*
G01*
X10290598Y-9512999D02*
G75*
G03*
X10290598Y-9512999I-35000J0D01*
G01*
X10399718Y-10411681D02*
G75*
G03*
X10399718Y-10411681I-35000J0D01*
G01*
X10487641Y-9687564D02*
G75*
G03*
X10487641Y-9687564I-35000J0D01*
G01*
X10549259Y-10195033D02*
G75*
G03*
X10549259Y-10195033I-35000J0D01*
G01*
X10580990Y-9933705D02*
G75*
G03*
X10580990Y-9933705I-35000J0D01*
G01*
D12*
X9603928Y-11288214D02*
X9603928Y-10988214D01*
X9675357Y-10988214D01*
X9718214Y-11002500D01*
X9746786Y-11031072D01*
X9761071Y-11059643D01*
X9775357Y-11116786D01*
X9775357Y-11159643D01*
X9761071Y-11216786D01*
X9746786Y-11245357D01*
X9718214Y-11273929D01*
X9675357Y-11288214D01*
X9603928Y-11288214D01*
X9903928Y-11288214D02*
X9903928Y-11088214D01*
X9903928Y-11145357D02*
X9918214Y-11116786D01*
X9932500Y-11102500D01*
X9961071Y-11088214D01*
X9989643Y-11088214D01*
X10089643Y-11288214D02*
X10089643Y-11088214D01*
X10089643Y-10988214D02*
X10075357Y-11002500D01*
X10089643Y-11016786D01*
X10103928Y-11002500D01*
X10089643Y-10988214D01*
X10089643Y-11016786D01*
X10275357Y-11288214D02*
X10246786Y-11273929D01*
X10232500Y-11245357D01*
X10232500Y-10988214D01*
X10432500Y-11288214D02*
X10403928Y-11273929D01*
X10389643Y-11245357D01*
X10389643Y-10988214D01*
X10775357Y-11288214D02*
X10775357Y-10988214D01*
X10875357Y-11202500D01*
X10975357Y-10988214D01*
X10975357Y-11288214D01*
X11246786Y-11288214D02*
X11246786Y-11131072D01*
X11232500Y-11102500D01*
X11203928Y-11088214D01*
X11146786Y-11088214D01*
X11118214Y-11102500D01*
X11246786Y-11273929D02*
X11218214Y-11288214D01*
X11146786Y-11288214D01*
X11118214Y-11273929D01*
X11103928Y-11245357D01*
X11103928Y-11216786D01*
X11118214Y-11188214D01*
X11146786Y-11173929D01*
X11218214Y-11173929D01*
X11246786Y-11159643D01*
X11389643Y-11088214D02*
X11389643Y-11388214D01*
X11389643Y-11102500D02*
X11418214Y-11088214D01*
X11475357Y-11088214D01*
X11503928Y-11102500D01*
X11518214Y-11116786D01*
X11532500Y-11145357D01*
X11532500Y-11231071D01*
X11518214Y-11259643D01*
X11503928Y-11273929D01*
X11475357Y-11288214D01*
X11418214Y-11288214D01*
X11389643Y-11273929D01*
X11661071Y-11259643D02*
X11675357Y-11273929D01*
X11661071Y-11288214D01*
X11646786Y-11273929D01*
X11661071Y-11259643D01*
X11661071Y-11288214D01*
X11661071Y-11102500D02*
X11675357Y-11116786D01*
X11661071Y-11131072D01*
X11646786Y-11116786D01*
X11661071Y-11102500D01*
X11661071Y-11131072D01*
X9267500Y-11757500D02*
X9317500Y-11807500D01*
X9317500Y-11757500D02*
X9267500Y-11807500D01*
X9661071Y-11618214D02*
X9689643Y-11618214D01*
X9718214Y-11632500D01*
X9732500Y-11646786D01*
X9746786Y-11675357D01*
X9761071Y-11732500D01*
X9761071Y-11803929D01*
X9746786Y-11861071D01*
X9732500Y-11889643D01*
X9718214Y-11903929D01*
X9689643Y-11918214D01*
X9661071Y-11918214D01*
X9632500Y-11903929D01*
X9618214Y-11889643D01*
X9603928Y-11861071D01*
X9589643Y-11803929D01*
X9589643Y-11732500D01*
X9603928Y-11675357D01*
X9618214Y-11646786D01*
X9632500Y-11632500D01*
X9661071Y-11618214D01*
X9889643Y-11889643D02*
X9903928Y-11903929D01*
X9889643Y-11918214D01*
X9875357Y-11903929D01*
X9889643Y-11889643D01*
X9889643Y-11918214D01*
X10175357Y-11618214D02*
X10032500Y-11618214D01*
X10018214Y-11761071D01*
X10032500Y-11746786D01*
X10061071Y-11732500D01*
X10132500Y-11732500D01*
X10161071Y-11746786D01*
X10175357Y-11761071D01*
X10189643Y-11789643D01*
X10189643Y-11861071D01*
X10175357Y-11889643D01*
X10161071Y-11903929D01*
X10132500Y-11918214D01*
X10061071Y-11918214D01*
X10032500Y-11903929D01*
X10018214Y-11889643D01*
X10375357Y-11618214D02*
X10403928Y-11618214D01*
X10432500Y-11632500D01*
X10446786Y-11646786D01*
X10461071Y-11675357D01*
X10475357Y-11732500D01*
X10475357Y-11803929D01*
X10461071Y-11861071D01*
X10446786Y-11889643D01*
X10432500Y-11903929D01*
X10403928Y-11918214D01*
X10375357Y-11918214D01*
X10346786Y-11903929D01*
X10332500Y-11889643D01*
X10318214Y-11861071D01*
X10303928Y-11803929D01*
X10303928Y-11732500D01*
X10318214Y-11675357D01*
X10332500Y-11646786D01*
X10346786Y-11632500D01*
X10375357Y-11618214D01*
X10603928Y-11918214D02*
X10603928Y-11718214D01*
X10603928Y-11746786D02*
X10618214Y-11732500D01*
X10646786Y-11718214D01*
X10689643Y-11718214D01*
X10718214Y-11732500D01*
X10732500Y-11761071D01*
X10732500Y-11918214D01*
X10732500Y-11761071D02*
X10746786Y-11732500D01*
X10775357Y-11718214D01*
X10818214Y-11718214D01*
X10846786Y-11732500D01*
X10861071Y-11761071D01*
X10861071Y-11918214D01*
X11003928Y-11918214D02*
X11003928Y-11718214D01*
X11003928Y-11746786D02*
X11018214Y-11732500D01*
X11046786Y-11718214D01*
X11089643Y-11718214D01*
X11118214Y-11732500D01*
X11132500Y-11761071D01*
X11132500Y-11918214D01*
X11132500Y-11761071D02*
X11146786Y-11732500D01*
X11175357Y-11718214D01*
X11218214Y-11718214D01*
X11246786Y-11732500D01*
X11261071Y-11761071D01*
X11261071Y-11918214D01*
X11846786Y-11603929D02*
X11589643Y-11989643D01*
X12232500Y-11618214D02*
X12261071Y-11618214D01*
X12289643Y-11632500D01*
X12303928Y-11646786D01*
X12318214Y-11675357D01*
X12332500Y-11732500D01*
X12332500Y-11803929D01*
X12318214Y-11861071D01*
X12303928Y-11889643D01*
X12289643Y-11903929D01*
X12261071Y-11918214D01*
X12232500Y-11918214D01*
X12203928Y-11903929D01*
X12189643Y-11889643D01*
X12175357Y-11861071D01*
X12161071Y-11803929D01*
X12161071Y-11732500D01*
X12175357Y-11675357D01*
X12189643Y-11646786D01*
X12203928Y-11632500D01*
X12232500Y-11618214D01*
X12461071Y-11889643D02*
X12475357Y-11903929D01*
X12461071Y-11918214D01*
X12446786Y-11903929D01*
X12461071Y-11889643D01*
X12461071Y-11918214D01*
X12661071Y-11618214D02*
X12689643Y-11618214D01*
X12718214Y-11632500D01*
X12732500Y-11646786D01*
X12746786Y-11675357D01*
X12761071Y-11732500D01*
X12761071Y-11803929D01*
X12746786Y-11861071D01*
X12732500Y-11889643D01*
X12718214Y-11903929D01*
X12689643Y-11918214D01*
X12661071Y-11918214D01*
X12632500Y-11903929D01*
X12618214Y-11889643D01*
X12603928Y-11861071D01*
X12589643Y-11803929D01*
X12589643Y-11732500D01*
X12603928Y-11675357D01*
X12618214Y-11646786D01*
X12632500Y-11632500D01*
X12661071Y-11618214D01*
X12875357Y-11646786D02*
X12889643Y-11632500D01*
X12918214Y-11618214D01*
X12989643Y-11618214D01*
X13018214Y-11632500D01*
X13032500Y-11646786D01*
X13046786Y-11675357D01*
X13046786Y-11703929D01*
X13032500Y-11746786D01*
X12861071Y-11918214D01*
X13046786Y-11918214D01*
X13232500Y-11618214D02*
X13261071Y-11618214D01*
X13289643Y-11632500D01*
X13303928Y-11646786D01*
X13318214Y-11675357D01*
X13332500Y-11732500D01*
X13332500Y-11803929D01*
X13318214Y-11861071D01*
X13303928Y-11889643D01*
X13289643Y-11903929D01*
X13261071Y-11918214D01*
X13232500Y-11918214D01*
X13203928Y-11903929D01*
X13189643Y-11889643D01*
X13175357Y-11861071D01*
X13161071Y-11803929D01*
X13161071Y-11732500D01*
X13175357Y-11675357D01*
X13189643Y-11646786D01*
X13203928Y-11632500D01*
X13232500Y-11618214D01*
X13446786Y-11618214D02*
X13446786Y-11675357D01*
X13561071Y-11618214D02*
X13561071Y-11675357D01*
X14003928Y-12032500D02*
X13989643Y-12018214D01*
X13961071Y-11975357D01*
X13946786Y-11946786D01*
X13932500Y-11903929D01*
X13918214Y-11832500D01*
X13918214Y-11775357D01*
X13932500Y-11703929D01*
X13946786Y-11661071D01*
X13961071Y-11632500D01*
X13989643Y-11589643D01*
X14003928Y-11575357D01*
X14275357Y-11918214D02*
X14103928Y-11918214D01*
X14189643Y-11918214D02*
X14189643Y-11618214D01*
X14161071Y-11661071D01*
X14132500Y-11689643D01*
X14103928Y-11703929D01*
X14561071Y-11918214D02*
X14389643Y-11918214D01*
X14475357Y-11918214D02*
X14475357Y-11618214D01*
X14446786Y-11661071D01*
X14418214Y-11689643D01*
X14389643Y-11703929D01*
X14918214Y-11918214D02*
X14918214Y-11618214D01*
X15046786Y-11918214D02*
X15046786Y-11761071D01*
X15032500Y-11732500D01*
X15003928Y-11718214D01*
X14961071Y-11718214D01*
X14932500Y-11732500D01*
X14918214Y-11746786D01*
X15232500Y-11918214D02*
X15203928Y-11903929D01*
X15189643Y-11889643D01*
X15175357Y-11861071D01*
X15175357Y-11775357D01*
X15189643Y-11746786D01*
X15203928Y-11732500D01*
X15232500Y-11718214D01*
X15275357Y-11718214D01*
X15303928Y-11732500D01*
X15318214Y-11746786D01*
X15332500Y-11775357D01*
X15332500Y-11861071D01*
X15318214Y-11889643D01*
X15303928Y-11903929D01*
X15275357Y-11918214D01*
X15232500Y-11918214D01*
X15503928Y-11918214D02*
X15475357Y-11903929D01*
X15461071Y-11875357D01*
X15461071Y-11618214D01*
X15732500Y-11903929D02*
X15703928Y-11918214D01*
X15646786Y-11918214D01*
X15618214Y-11903929D01*
X15603928Y-11875357D01*
X15603928Y-11761071D01*
X15618214Y-11732500D01*
X15646786Y-11718214D01*
X15703928Y-11718214D01*
X15732500Y-11732500D01*
X15746786Y-11761071D01*
X15746786Y-11789643D01*
X15603928Y-11818214D01*
X15861071Y-11903929D02*
X15889643Y-11918214D01*
X15946786Y-11918214D01*
X15975357Y-11903929D01*
X15989643Y-11875357D01*
X15989643Y-11861071D01*
X15975357Y-11832500D01*
X15946786Y-11818214D01*
X15903928Y-11818214D01*
X15875357Y-11803929D01*
X15861071Y-11775357D01*
X15861071Y-11761071D01*
X15875357Y-11732500D01*
X15903928Y-11718214D01*
X15946786Y-11718214D01*
X15975357Y-11732500D01*
X16089643Y-12032500D02*
X16103928Y-12018214D01*
X16132500Y-11975357D01*
X16146786Y-11946786D01*
X16161071Y-11903929D01*
X16175357Y-11832500D01*
X16175357Y-11775357D01*
X16161071Y-11703929D01*
X16146786Y-11661071D01*
X16132500Y-11632500D01*
X16103928Y-11589643D01*
X16089643Y-11575357D01*
X9317500Y-12178500D02*
G75*
G03*
X9317500Y-12178500I-35000J0D01*
G01*
X9661071Y-12014214D02*
X9689643Y-12014214D01*
X9718214Y-12028500D01*
X9732500Y-12042786D01*
X9746786Y-12071357D01*
X9761071Y-12128500D01*
X9761071Y-12199929D01*
X9746786Y-12257071D01*
X9732500Y-12285643D01*
X9718214Y-12299929D01*
X9689643Y-12314214D01*
X9661071Y-12314214D01*
X9632500Y-12299929D01*
X9618214Y-12285643D01*
X9603928Y-12257071D01*
X9589643Y-12199929D01*
X9589643Y-12128500D01*
X9603928Y-12071357D01*
X9618214Y-12042786D01*
X9632500Y-12028500D01*
X9661071Y-12014214D01*
X9889643Y-12285643D02*
X9903928Y-12299929D01*
X9889643Y-12314214D01*
X9875357Y-12299929D01*
X9889643Y-12285643D01*
X9889643Y-12314214D01*
X10003928Y-12014214D02*
X10203928Y-12014214D01*
X10075357Y-12314214D01*
X10375357Y-12014214D02*
X10403928Y-12014214D01*
X10432500Y-12028500D01*
X10446786Y-12042786D01*
X10461071Y-12071357D01*
X10475357Y-12128500D01*
X10475357Y-12199929D01*
X10461071Y-12257071D01*
X10446786Y-12285643D01*
X10432500Y-12299929D01*
X10403928Y-12314214D01*
X10375357Y-12314214D01*
X10346786Y-12299929D01*
X10332500Y-12285643D01*
X10318214Y-12257071D01*
X10303928Y-12199929D01*
X10303928Y-12128500D01*
X10318214Y-12071357D01*
X10332500Y-12042786D01*
X10346786Y-12028500D01*
X10375357Y-12014214D01*
X10603928Y-12314214D02*
X10603928Y-12114214D01*
X10603928Y-12142786D02*
X10618214Y-12128500D01*
X10646786Y-12114214D01*
X10689643Y-12114214D01*
X10718214Y-12128500D01*
X10732500Y-12157071D01*
X10732500Y-12314214D01*
X10732500Y-12157071D02*
X10746786Y-12128500D01*
X10775357Y-12114214D01*
X10818214Y-12114214D01*
X10846786Y-12128500D01*
X10861071Y-12157071D01*
X10861071Y-12314214D01*
X11003928Y-12314214D02*
X11003928Y-12114214D01*
X11003928Y-12142786D02*
X11018214Y-12128500D01*
X11046786Y-12114214D01*
X11089643Y-12114214D01*
X11118214Y-12128500D01*
X11132500Y-12157071D01*
X11132500Y-12314214D01*
X11132500Y-12157071D02*
X11146786Y-12128500D01*
X11175357Y-12114214D01*
X11218214Y-12114214D01*
X11246786Y-12128500D01*
X11261071Y-12157071D01*
X11261071Y-12314214D01*
X11846786Y-11999929D02*
X11589643Y-12385643D01*
X12232500Y-12014214D02*
X12261071Y-12014214D01*
X12289643Y-12028500D01*
X12303928Y-12042786D01*
X12318214Y-12071357D01*
X12332500Y-12128500D01*
X12332500Y-12199929D01*
X12318214Y-12257071D01*
X12303928Y-12285643D01*
X12289643Y-12299929D01*
X12261071Y-12314214D01*
X12232500Y-12314214D01*
X12203928Y-12299929D01*
X12189643Y-12285643D01*
X12175357Y-12257071D01*
X12161071Y-12199929D01*
X12161071Y-12128500D01*
X12175357Y-12071357D01*
X12189643Y-12042786D01*
X12203928Y-12028500D01*
X12232500Y-12014214D01*
X12461071Y-12285643D02*
X12475357Y-12299929D01*
X12461071Y-12314214D01*
X12446786Y-12299929D01*
X12461071Y-12285643D01*
X12461071Y-12314214D01*
X12661071Y-12014214D02*
X12689643Y-12014214D01*
X12718214Y-12028500D01*
X12732500Y-12042786D01*
X12746786Y-12071357D01*
X12761071Y-12128500D01*
X12761071Y-12199929D01*
X12746786Y-12257071D01*
X12732500Y-12285643D01*
X12718214Y-12299929D01*
X12689643Y-12314214D01*
X12661071Y-12314214D01*
X12632500Y-12299929D01*
X12618214Y-12285643D01*
X12603928Y-12257071D01*
X12589643Y-12199929D01*
X12589643Y-12128500D01*
X12603928Y-12071357D01*
X12618214Y-12042786D01*
X12632500Y-12028500D01*
X12661071Y-12014214D01*
X12875357Y-12042786D02*
X12889643Y-12028500D01*
X12918214Y-12014214D01*
X12989643Y-12014214D01*
X13018214Y-12028500D01*
X13032500Y-12042786D01*
X13046786Y-12071357D01*
X13046786Y-12099929D01*
X13032500Y-12142786D01*
X12861071Y-12314214D01*
X13046786Y-12314214D01*
X13218214Y-12142786D02*
X13189643Y-12128500D01*
X13175357Y-12114214D01*
X13161071Y-12085643D01*
X13161071Y-12071357D01*
X13175357Y-12042786D01*
X13189643Y-12028500D01*
X13218214Y-12014214D01*
X13275357Y-12014214D01*
X13303928Y-12028500D01*
X13318214Y-12042786D01*
X13332500Y-12071357D01*
X13332500Y-12085643D01*
X13318214Y-12114214D01*
X13303928Y-12128500D01*
X13275357Y-12142786D01*
X13218214Y-12142786D01*
X13189643Y-12157071D01*
X13175357Y-12171357D01*
X13161071Y-12199929D01*
X13161071Y-12257071D01*
X13175357Y-12285643D01*
X13189643Y-12299929D01*
X13218214Y-12314214D01*
X13275357Y-12314214D01*
X13303928Y-12299929D01*
X13318214Y-12285643D01*
X13332500Y-12257071D01*
X13332500Y-12199929D01*
X13318214Y-12171357D01*
X13303928Y-12157071D01*
X13275357Y-12142786D01*
X13446786Y-12014214D02*
X13446786Y-12071357D01*
X13561071Y-12014214D02*
X13561071Y-12071357D01*
X14003928Y-12428500D02*
X13989643Y-12414214D01*
X13961071Y-12371357D01*
X13946786Y-12342786D01*
X13932500Y-12299929D01*
X13918214Y-12228500D01*
X13918214Y-12171357D01*
X13932500Y-12099929D01*
X13946786Y-12057071D01*
X13961071Y-12028500D01*
X13989643Y-11985643D01*
X14003928Y-11971357D01*
X14275357Y-12314214D02*
X14103928Y-12314214D01*
X14189643Y-12314214D02*
X14189643Y-12014214D01*
X14161071Y-12057071D01*
X14132500Y-12085643D01*
X14103928Y-12099929D01*
X14375357Y-12014214D02*
X14561071Y-12014214D01*
X14461071Y-12128500D01*
X14503928Y-12128500D01*
X14532500Y-12142786D01*
X14546786Y-12157071D01*
X14561071Y-12185643D01*
X14561071Y-12257071D01*
X14546786Y-12285643D01*
X14532500Y-12299929D01*
X14503928Y-12314214D01*
X14418214Y-12314214D01*
X14389643Y-12299929D01*
X14375357Y-12285643D01*
X14918214Y-12314214D02*
X14918214Y-12014214D01*
X15046786Y-12314214D02*
X15046786Y-12157071D01*
X15032500Y-12128500D01*
X15003928Y-12114214D01*
X14961071Y-12114214D01*
X14932500Y-12128500D01*
X14918214Y-12142786D01*
X15232500Y-12314214D02*
X15203928Y-12299929D01*
X15189643Y-12285643D01*
X15175357Y-12257071D01*
X15175357Y-12171357D01*
X15189643Y-12142786D01*
X15203928Y-12128500D01*
X15232500Y-12114214D01*
X15275357Y-12114214D01*
X15303928Y-12128500D01*
X15318214Y-12142786D01*
X15332500Y-12171357D01*
X15332500Y-12257071D01*
X15318214Y-12285643D01*
X15303928Y-12299929D01*
X15275357Y-12314214D01*
X15232500Y-12314214D01*
X15503928Y-12314214D02*
X15475357Y-12299929D01*
X15461071Y-12271357D01*
X15461071Y-12014214D01*
X15732500Y-12299929D02*
X15703928Y-12314214D01*
X15646786Y-12314214D01*
X15618214Y-12299929D01*
X15603928Y-12271357D01*
X15603928Y-12157071D01*
X15618214Y-12128500D01*
X15646786Y-12114214D01*
X15703928Y-12114214D01*
X15732500Y-12128500D01*
X15746786Y-12157071D01*
X15746786Y-12185643D01*
X15603928Y-12214214D01*
X15861071Y-12299929D02*
X15889643Y-12314214D01*
X15946786Y-12314214D01*
X15975357Y-12299929D01*
X15989643Y-12271357D01*
X15989643Y-12257071D01*
X15975357Y-12228500D01*
X15946786Y-12214214D01*
X15903928Y-12214214D01*
X15875357Y-12199929D01*
X15861071Y-12171357D01*
X15861071Y-12157071D01*
X15875357Y-12128500D01*
X15903928Y-12114214D01*
X15946786Y-12114214D01*
X15975357Y-12128500D01*
X16089643Y-12428500D02*
X16103928Y-12414214D01*
X16132500Y-12371357D01*
X16146786Y-12342786D01*
X16161071Y-12299929D01*
X16175357Y-12228500D01*
X16175357Y-12171357D01*
X16161071Y-12099929D01*
X16146786Y-12057071D01*
X16132500Y-12028500D01*
X16103928Y-11985643D01*
X16089643Y-11971357D01*
M02*
