%FSLAX45Y45*%
G04 Gerber Fmt 4.5, Leading zero omitted, Abs format (unit mm)*
G04 Created by KiCad (PCBNEW (5.1.8)-1) date 2021-07-10 07:55:57*
%MOMM*%
%LPD*%
G01*
G04 APERTURE LIST*
%TA.AperFunction,Profile*%
%ADD10C,0.050000*%
%TD*%
%ADD11C,0.200000*%
%ADD12C,0.300000*%
G04 APERTURE END LIST*
D10*
X10680000Y-10530000D02*
G75*
G02*
X10390000Y-10820000I-290000J0D01*
G01*
X9610000Y-10820000D02*
G75*
G02*
X9320000Y-10530000I0J290000D01*
G01*
X10390000Y-9210000D02*
G75*
G02*
X10680000Y-9500000I0J-290000D01*
G01*
X9320000Y-9500000D02*
G75*
G02*
X9610000Y-9210000I290000J0D01*
G01*
X10400000Y-10000000D02*
G75*
G03*
X10400000Y-10000000I-400000J0D01*
G01*
X10390000Y-10820000D02*
X9610000Y-10820000D01*
X10680000Y-9500000D02*
X10680000Y-10530000D01*
X9610000Y-9210000D02*
X10390000Y-9210000D01*
X9320000Y-10530000D02*
X9320000Y-9500000D01*
D11*
D12*
X9603928Y-11288214D02*
X9603928Y-10988214D01*
X9675357Y-10988214D01*
X9718214Y-11002500D01*
X9746786Y-11031072D01*
X9761071Y-11059643D01*
X9775357Y-11116786D01*
X9775357Y-11159643D01*
X9761071Y-11216786D01*
X9746786Y-11245357D01*
X9718214Y-11273929D01*
X9675357Y-11288214D01*
X9603928Y-11288214D01*
X9903928Y-11288214D02*
X9903928Y-11088214D01*
X9903928Y-11145357D02*
X9918214Y-11116786D01*
X9932500Y-11102500D01*
X9961071Y-11088214D01*
X9989643Y-11088214D01*
X10089643Y-11288214D02*
X10089643Y-11088214D01*
X10089643Y-10988214D02*
X10075357Y-11002500D01*
X10089643Y-11016786D01*
X10103928Y-11002500D01*
X10089643Y-10988214D01*
X10089643Y-11016786D01*
X10275357Y-11288214D02*
X10246786Y-11273929D01*
X10232500Y-11245357D01*
X10232500Y-10988214D01*
X10432500Y-11288214D02*
X10403928Y-11273929D01*
X10389643Y-11245357D01*
X10389643Y-10988214D01*
X10775357Y-11288214D02*
X10775357Y-10988214D01*
X10875357Y-11202500D01*
X10975357Y-10988214D01*
X10975357Y-11288214D01*
X11246786Y-11288214D02*
X11246786Y-11131072D01*
X11232500Y-11102500D01*
X11203928Y-11088214D01*
X11146786Y-11088214D01*
X11118214Y-11102500D01*
X11246786Y-11273929D02*
X11218214Y-11288214D01*
X11146786Y-11288214D01*
X11118214Y-11273929D01*
X11103928Y-11245357D01*
X11103928Y-11216786D01*
X11118214Y-11188214D01*
X11146786Y-11173929D01*
X11218214Y-11173929D01*
X11246786Y-11159643D01*
X11389643Y-11088214D02*
X11389643Y-11388214D01*
X11389643Y-11102500D02*
X11418214Y-11088214D01*
X11475357Y-11088214D01*
X11503928Y-11102500D01*
X11518214Y-11116786D01*
X11532500Y-11145357D01*
X11532500Y-11231071D01*
X11518214Y-11259643D01*
X11503928Y-11273929D01*
X11475357Y-11288214D01*
X11418214Y-11288214D01*
X11389643Y-11273929D01*
X11661071Y-11259643D02*
X11675357Y-11273929D01*
X11661071Y-11288214D01*
X11646786Y-11273929D01*
X11661071Y-11259643D01*
X11661071Y-11288214D01*
X11661071Y-11102500D02*
X11675357Y-11116786D01*
X11661071Y-11131072D01*
X11646786Y-11116786D01*
X11661071Y-11102500D01*
X11661071Y-11131072D01*
M02*
